<svg width="21" height="21" viewBox="0 0 21 21" fill="none" xmlns="http://www.w3.org/2000/svg">
<path d="M10.0001 8C10.0001 8.82843 9.32851 9.5 8.50008 9.5C7.67165 9.5 7.00008 8.82843 7.00008 8C7.00008 7.17157 7.67165 6.5 8.50008 6.5C9.32851 6.5 10.0001 7.17157 10.0001 8Z" fill="#050038"/>
<path d="M15.0001 8C15.0001 8.82843 14.3285 9.5 13.5001 9.5C12.6717 9.5 12.0001 8.82843 12.0001 8C12.0001 7.17157 12.6717 6.5 13.5001 6.5C14.3285 6.5 15.0001 7.17157 15.0001 8Z" fill="#050038"/>
<path d="M7.44538 13.8321C8.60242 14.6034 9.79218 15 11.0001 15C12.208 15 13.3977 14.6034 14.5548 13.8321C15.0143 13.5257 15.1385 12.9048 14.8321 12.4453C14.5258 11.9858 13.9049 11.8616 13.4454 12.1679C12.6024 12.7299 11.7922 13 11.0001 13C10.208 13 9.39773 12.7299 8.55478 12.1679C8.09525 11.8616 7.47438 11.9858 7.16803 12.4453C6.86168 12.9048 6.98585 13.5257 7.44538 13.8321Z" fill="#050038"/>
<path fill-rule="evenodd" clip-rule="evenodd" d="M3.21253 20.3162C2.16465 20.6655 1.03201 20.0992 0.682712 19.0513C0.545867 18.6408 0.545867 18.1969 0.682712 17.7864L1.8963 14.1456C1.30822 12.8564 0.998939 11.4495 0.998939 10C0.998939 4.47715 5.47609 0 10.9989 0C16.5218 0 20.9989 4.47715 20.9989 10C20.9989 15.5228 16.5218 20 10.9989 20C9.54947 20 8.14256 19.6907 6.85331 19.1026L3.21253 20.3162ZM7.37547 17.1345C8.488 17.7008 9.72097 18 10.9989 18C15.4172 18 18.9989 14.4183 18.9989 10C18.9989 5.58172 15.4172 2 10.9989 2C6.58066 2 2.99894 5.58172 2.99894 10C2.99894 11.278 3.29813 12.5109 3.86443 13.6235L4.05424 13.9964L2.58008 18.4189L7.00257 16.9447L7.37547 17.1345Z" fill="#050038"/>
</svg>
