<svg width="19" height="22" viewBox="0 0 19 22" fill="none" xmlns="http://www.w3.org/2000/svg">
<path fill-rule="evenodd" clip-rule="evenodd" d="M16.0629 8H11C11.3031 7.17152 11.4858 6.50485 11.5484 6C11.861 3.47495 10.4484 0.979359 8 0L3.17927 10.6056C3.06113 10.8655 3 11.1477 3 11.4332V21C3 21.5523 3.44772 22 4 22H11C15.4183 22 19 18.4183 19 14C19 11.8755 18.5768 10.1741 17.7305 8.89588C17.3601 8.33644 16.7339 8 16.0629 8ZM5 20V11.4332L8.81731 3.03514C9.54775 3.98319 9.80385 5.26389 9.39969 6.47636L8.22515 10L16.063 10C16.6711 10.9186 17 12.2408 17 14C17 17.3137 14.3137 20 11 20H5Z" fill="#050038"/>
<path d="M1 22C1.55228 22 2 21.5523 2 21V11C2 10.4477 1.55228 10 1 10C0.447715 10 0 10.4477 0 11V21C0 21.5523 0.447715 22 1 22Z" fill="#050038"/>
</svg>
